<svg width="20" height="19" viewBox="0 0 20 19" fill="none" xmlns="http://www.w3.org/2000/svg">
<path d="M15 0H5C2.243 0 0 2.243 0 5V18C0 18.404 0.244004 18.7701 0.617004 18.9241C0.741004 18.9761 0.871 19 1 19C1.26 19 1.516 18.898 1.707 18.707L4.121 16.293C4.31 16.105 4.56101 16 4.82901 16H15C17.757 16 20 13.757 20 11V5C20 2.243 17.757 0 15 0ZM18 11C18 12.654 16.654 14 15 14H4.82901C4.02801 14 3.274 14.3119 2.707 14.8789L2 15.5859V5C2 3.346 3.346 2 5 2H15C16.654 2 18 3.346 18 5V11ZM7.25 8C7.25 8.69 6.69 9.25 6 9.25C5.31 9.25 4.75 8.69 4.75 8C4.75 7.31 5.31 6.75 6 6.75C6.69 6.75 7.25 7.31 7.25 8ZM11.25 8C11.25 8.69 10.69 9.25 10 9.25C9.31 9.25 8.75 8.69 8.75 8C8.75 7.31 9.31 6.75 10 6.75C10.69 6.75 11.25 7.31 11.25 8ZM15.25 8C15.25 8.69 14.69 9.25 14 9.25C13.31 9.25 12.75 8.69 12.75 8C12.75 7.31 13.31 6.75 14 6.75C14.69 6.75 15.25 7.31 15.25 8Z" fill="#41416E"/>
</svg>
