<svg width="62" height="43" viewBox="0 0 62 43" fill="none" xmlns="http://www.w3.org/2000/svg">
<path d="M21 6H19V11H19.01L19 20C19 21.1 19.9 22 21 22H39V20H21V6ZM26 15H40L36.5 10.5L34 13.51L30.5 9L26 15ZM41 4H33L31 2H25C23.9 2 23.01 2.9 23.01 4L23 16C23 17.1 23.9 18 25 18H41C42.1 18 43 17.1 43 16V6C43 4.9 42.1 4 41 4ZM41 16H25V4H30.17L31.58 5.41L32.17 6H41V16Z" fill="black"/>
<path d="M5.43 34.07C5.43 34.65 5.23 35.1333 4.83 35.52C4.43667 35.9 3.83333 36.09 3.02 36.09H1.68V39H0.77V32.03H3.02C3.80667 32.03 4.40333 32.22 4.81 32.6C5.22333 32.98 5.43 33.47 5.43 34.07ZM3.02 35.34C3.52667 35.34 3.9 35.23 4.14 35.01C4.38 34.79 4.5 34.4767 4.5 34.07C4.5 33.21 4.00667 32.78 3.02 32.78H1.68V35.34H3.02ZM9.28102 33.42C9.69435 33.42 10.0677 33.51 10.401 33.69C10.7343 33.8633 10.9943 34.1267 11.181 34.48C11.3743 34.8333 11.471 35.2633 11.471 35.77V39H10.571V35.9C10.571 35.3533 10.4343 34.9367 10.161 34.65C9.88768 34.3567 9.51435 34.21 9.04102 34.21C8.56102 34.21 8.17768 34.36 7.89102 34.66C7.61102 34.96 7.47102 35.3967 7.47102 35.97V39H6.56102V31.6H7.47102V34.3C7.65102 34.02 7.89768 33.8033 8.21102 33.65C8.53102 33.4967 8.88768 33.42 9.28102 33.42ZM15.3475 39.09C14.8342 39.09 14.3675 38.9733 13.9475 38.74C13.5342 38.5067 13.2075 38.1767 12.9675 37.75C12.7342 37.3167 12.6175 36.8167 12.6175 36.25C12.6175 35.69 12.7375 35.1967 12.9775 34.77C13.2242 34.3367 13.5575 34.0067 13.9775 33.78C14.3975 33.5467 14.8675 33.43 15.3875 33.43C15.9075 33.43 16.3775 33.5467 16.7975 33.78C17.2175 34.0067 17.5475 34.3333 17.7875 34.76C18.0342 35.1867 18.1575 35.6833 18.1575 36.25C18.1575 36.8167 18.0308 37.3167 17.7775 37.75C17.5308 38.1767 17.1942 38.5067 16.7675 38.74C16.3408 38.9733 15.8675 39.09 15.3475 39.09ZM15.3475 38.29C15.6742 38.29 15.9808 38.2133 16.2675 38.06C16.5542 37.9067 16.7842 37.6767 16.9575 37.37C17.1375 37.0633 17.2275 36.69 17.2275 36.25C17.2275 35.81 17.1408 35.4367 16.9675 35.13C16.7942 34.8233 16.5675 34.5967 16.2875 34.45C16.0075 34.2967 15.7042 34.22 15.3775 34.22C15.0442 34.22 14.7375 34.2967 14.4575 34.45C14.1842 34.5967 13.9642 34.8233 13.7975 35.13C13.6308 35.4367 13.5475 35.81 13.5475 36.25C13.5475 36.6967 13.6275 37.0733 13.7875 37.38C13.9542 37.6867 14.1742 37.9167 14.4475 38.07C14.7208 38.2167 15.0208 38.29 15.3475 38.29ZM20.464 34.27V37.5C20.464 37.7667 20.5207 37.9567 20.634 38.07C20.7473 38.1767 20.944 38.23 21.224 38.23H21.894V39H21.074C20.5673 39 20.1873 38.8833 19.934 38.65C19.6807 38.4167 19.554 38.0333 19.554 37.5V34.27H18.844V33.52H19.554V32.14H20.464V33.52H21.894V34.27H20.464ZM25.3866 39.09C24.8732 39.09 24.4066 38.9733 23.9866 38.74C23.5732 38.5067 23.2466 38.1767 23.0066 37.75C22.7732 37.3167 22.6566 36.8167 22.6566 36.25C22.6566 35.69 22.7766 35.1967 23.0166 34.77C23.2632 34.3367 23.5966 34.0067 24.0166 33.78C24.4366 33.5467 24.9066 33.43 25.4266 33.43C25.9466 33.43 26.4166 33.5467 26.8366 33.78C27.2566 34.0067 27.5866 34.3333 27.8266 34.76C28.0732 35.1867 28.1966 35.6833 28.1966 36.25C28.1966 36.8167 28.0699 37.3167 27.8166 37.75C27.5699 38.1767 27.2332 38.5067 26.8066 38.74C26.3799 38.9733 25.9066 39.09 25.3866 39.09ZM25.3866 38.29C25.7132 38.29 26.0199 38.2133 26.3066 38.06C26.5932 37.9067 26.8232 37.6767 26.9966 37.37C27.1766 37.0633 27.2666 36.69 27.2666 36.25C27.2666 35.81 27.1799 35.4367 27.0066 35.13C26.8332 34.8233 26.6066 34.5967 26.3266 34.45C26.0466 34.2967 25.7432 34.22 25.4166 34.22C25.0832 34.22 24.7766 34.2967 24.4966 34.45C24.2232 34.5967 24.0032 34.8233 23.8366 35.13C23.6699 35.4367 23.5866 35.81 23.5866 36.25C23.5866 36.6967 23.6666 37.0733 23.8266 37.38C23.9932 37.6867 24.2132 37.9167 24.4866 38.07C24.7599 38.2167 25.0599 38.29 25.3866 38.29ZM32.793 29.58L30.053 40.7H29.153L31.883 29.58H32.793ZM39.9089 32.03L37.2789 39H36.2289L33.5989 32.03H34.5689L36.7589 38.04L38.9489 32.03H39.9089ZM41.3767 32.63C41.2034 32.63 41.0567 32.57 40.9367 32.45C40.8167 32.33 40.7567 32.1833 40.7567 32.01C40.7567 31.8367 40.8167 31.69 40.9367 31.57C41.0567 31.45 41.2034 31.39 41.3767 31.39C41.5434 31.39 41.6834 31.45 41.7967 31.57C41.9167 31.69 41.9767 31.8367 41.9767 32.01C41.9767 32.1833 41.9167 32.33 41.7967 32.45C41.6834 32.57 41.5434 32.63 41.3767 32.63ZM41.8167 33.52V39H40.9067V33.52H41.8167ZM43.0277 36.24C43.0277 35.68 43.141 35.19 43.3677 34.77C43.5943 34.3433 43.9043 34.0133 44.2977 33.78C44.6977 33.5467 45.1443 33.43 45.6377 33.43C46.0643 33.43 46.461 33.53 46.8277 33.73C47.1943 33.9233 47.4743 34.18 47.6677 34.5V31.6H48.5877V39H47.6677V37.97C47.4877 38.2967 47.221 38.5667 46.8677 38.78C46.5143 38.9867 46.101 39.09 45.6277 39.09C45.141 39.09 44.6977 38.97 44.2977 38.73C43.9043 38.49 43.5943 38.1533 43.3677 37.72C43.141 37.2867 43.0277 36.7933 43.0277 36.24ZM47.6677 36.25C47.6677 35.8367 47.5843 35.4767 47.4177 35.17C47.251 34.8633 47.0243 34.63 46.7377 34.47C46.4577 34.3033 46.1477 34.22 45.8077 34.22C45.4677 34.22 45.1577 34.3 44.8777 34.46C44.5977 34.62 44.3743 34.8533 44.2077 35.16C44.041 35.4667 43.9577 35.8267 43.9577 36.24C43.9577 36.66 44.041 37.0267 44.2077 37.34C44.3743 37.6467 44.5977 37.8833 44.8777 38.05C45.1577 38.21 45.4677 38.29 45.8077 38.29C46.1477 38.29 46.4577 38.21 46.7377 38.05C47.0243 37.8833 47.251 37.6467 47.4177 37.34C47.5843 37.0267 47.6677 36.6633 47.6677 36.25ZM55.1255 36.05C55.1255 36.2233 55.1155 36.4067 55.0955 36.6H50.7155C50.7488 37.14 50.9321 37.5633 51.2655 37.87C51.6055 38.17 52.0155 38.32 52.4955 38.32C52.8888 38.32 53.2155 38.23 53.4755 38.05C53.7421 37.8633 53.9288 37.6167 54.0355 37.31H55.0155C54.8688 37.8367 54.5755 38.2667 54.1355 38.6C53.6955 38.9267 53.1488 39.09 52.4955 39.09C51.9755 39.09 51.5088 38.9733 51.0955 38.74C50.6888 38.5067 50.3688 38.1767 50.1355 37.75C49.9021 37.3167 49.7855 36.8167 49.7855 36.25C49.7855 35.6833 49.8988 35.1867 50.1255 34.76C50.3521 34.3333 50.6688 34.0067 51.0755 33.78C51.4888 33.5467 51.9621 33.43 52.4955 33.43C53.0155 33.43 53.4755 33.5433 53.8755 33.77C54.2755 33.9967 54.5821 34.31 54.7955 34.71C55.0155 35.1033 55.1255 35.55 55.1255 36.05ZM54.1855 35.86C54.1855 35.5133 54.1088 35.2167 53.9555 34.97C53.8021 34.7167 53.5921 34.5267 53.3255 34.4C53.0655 34.2667 52.7755 34.2 52.4555 34.2C51.9955 34.2 51.6021 34.3467 51.2755 34.64C50.9555 34.9333 50.7721 35.34 50.7255 35.86H54.1855ZM58.7166 39.09C58.2033 39.09 57.7366 38.9733 57.3166 38.74C56.9033 38.5067 56.5766 38.1767 56.3366 37.75C56.1033 37.3167 55.9866 36.8167 55.9866 36.25C55.9866 35.69 56.1066 35.1967 56.3466 34.77C56.5933 34.3367 56.9266 34.0067 57.3466 33.78C57.7666 33.5467 58.2366 33.43 58.7566 33.43C59.2766 33.43 59.7466 33.5467 60.1666 33.78C60.5866 34.0067 60.9166 34.3333 61.1566 34.76C61.4033 35.1867 61.5266 35.6833 61.5266 36.25C61.5266 36.8167 61.4 37.3167 61.1466 37.75C60.9 38.1767 60.5633 38.5067 60.1366 38.74C59.71 38.9733 59.2366 39.09 58.7166 39.09ZM58.7166 38.29C59.0433 38.29 59.35 38.2133 59.6366 38.06C59.9233 37.9067 60.1533 37.6767 60.3266 37.37C60.5066 37.0633 60.5966 36.69 60.5966 36.25C60.5966 35.81 60.51 35.4367 60.3366 35.13C60.1633 34.8233 59.9366 34.5967 59.6566 34.45C59.3766 34.2967 59.0733 34.22 58.7466 34.22C58.4133 34.22 58.1066 34.2967 57.8266 34.45C57.5533 34.5967 57.3333 34.8233 57.1666 35.13C57 35.4367 56.9166 35.81 56.9166 36.25C56.9166 36.6967 56.9966 37.0733 57.1566 37.38C57.3233 37.6867 57.5433 37.9167 57.8166 38.07C58.09 38.2167 58.39 38.29 58.7166 38.29Z" fill="black"/>
</svg>
