<svg width="24" height="24" viewBox="0 0 24 24" fill="none" xmlns="http://www.w3.org/2000/svg">
<path d="M21.4907 6.30677L15.6574 1.61615C13.5387 -0.0878696 10.4623 -0.0878696 8.34242 1.61615L2.50909 6.30677C1.12659 7.41905 0.333252 9.07532 0.333252 10.8494V17.8428C0.333252 21.0571 2.95008 23.6715 6.16658 23.6715H9.66658V17.8416C9.66658 16.5566 10.7131 15.5132 11.9999 15.5132C13.2867 15.5132 14.3333 16.5578 14.3333 17.8416V23.6715H17.8333C21.0497 23.6715 23.6666 21.0571 23.6666 17.8428V10.8494C23.6666 9.07532 22.8732 7.41905 21.4907 6.30677ZM21.3332 17.8428C21.3332 19.7697 19.7629 21.3372 17.8333 21.3372H16.6666V17.8416C16.6666 15.2704 14.5736 13.1789 11.9999 13.1789C9.42625 13.1789 7.33325 15.2704 7.33325 17.8416V21.3372H6.16658C4.23692 21.3372 2.66658 19.7697 2.66658 17.8428V10.8494C2.66658 9.78611 3.14258 8.79287 3.97091 8.12643L9.80425 3.43567C11.0771 2.41325 12.9239 2.41325 14.1956 3.43567L20.0289 8.12643C20.8584 8.79287 21.3344 9.78611 21.3344 10.8494V17.8428H21.3332Z" fill="#41416E"/>
</svg>
