<svg width="24" height="24" viewBox="0 0 24 24" fill="none" xmlns="http://www.w3.org/2000/svg">
<path d="M15.4999 0.333252H8.49992C3.99658 0.333252 0.333252 3.99775 0.333252 8.49992V15.4999C0.333252 20.0021 3.99658 23.6666 8.49992 23.6666H15.4999C20.0033 23.6666 23.6666 20.0021 23.6666 15.4999V8.49992C23.6666 3.99775 20.0033 0.333252 15.4999 0.333252ZM21.3332 15.4999C21.3332 18.7164 18.7164 21.3333 15.4999 21.3333H8.49992C5.28342 21.3333 2.66658 18.7164 2.66658 15.4999V8.49992C2.66658 5.28342 5.28342 2.66659 8.49992 2.66659H15.4999C18.7164 2.66659 21.3332 5.28342 21.3332 8.49992V15.4999ZM17.8333 11.9999C17.8333 12.6451 17.3106 13.1666 16.6666 13.1666H13.1666V16.6666C13.1666 17.3118 12.6439 17.8333 11.9999 17.8333C11.3559 17.8333 10.8333 17.3118 10.8333 16.6666V13.1666H7.33325C6.68925 13.1666 6.16658 12.6451 6.16658 11.9999C6.16658 11.3548 6.68925 10.8333 7.33325 10.8333H10.8333V7.33325C10.8333 6.68809 11.3559 6.16659 11.9999 6.16659C12.6439 6.16659 13.1666 6.68809 13.1666 7.33325V10.8333H16.6666C17.3106 10.8333 17.8333 11.3548 17.8333 11.9999Z" fill="#41416E"/>
</svg>
