<svg width="20" height="24" viewBox="0 0 20 24" fill="none" xmlns="http://www.w3.org/2000/svg">
<path d="M10.0001 13.1666C13.5386 13.1666 16.4168 10.2873 16.4168 6.74992C16.4168 3.21259 13.5386 0.333252 10.0001 0.333252C6.46158 0.333252 3.58342 3.21259 3.58342 6.74992C3.58342 10.2873 6.46158 13.1666 10.0001 13.1666ZM10.0001 2.66659C12.2517 2.66659 14.0834 4.49825 14.0834 6.74992C14.0834 9.00159 12.2517 10.8333 10.0001 10.8333C7.74842 10.8333 5.91675 9.00159 5.91675 6.74992C5.91675 4.49825 7.74842 2.66659 10.0001 2.66659ZM19.3334 18.9615V20.141C19.3334 21.303 18.9087 22.4171 18.1376 23.2781C17.9066 23.5359 17.5881 23.6666 17.2673 23.6666C16.9908 23.6666 16.7119 23.5686 16.4891 23.3691C16.0084 22.9397 15.9688 22.2013 16.3981 21.7218C16.7854 21.2889 16.9989 20.7266 16.9989 20.141V18.9615C16.9989 17.3293 15.9174 15.9176 14.3704 15.5291C14.1464 15.4731 13.9072 15.5011 13.7159 15.6107C11.4047 16.8964 8.58372 16.8894 6.29472 15.6177C6.09289 15.5022 5.85492 15.4731 5.63092 15.5291C4.08042 15.9176 3.00008 17.3293 3.00008 18.9615V20.141C3.00008 20.7278 3.2136 21.2889 3.60093 21.7218C4.03027 22.2013 3.98943 22.9397 3.50993 23.3691C3.02926 23.7996 2.29194 23.7576 1.86261 23.2781C1.09144 22.4171 0.666748 21.303 0.666748 20.141V18.9615C0.666748 16.2583 2.47395 13.9155 5.06162 13.2657C5.86312 13.0615 6.73112 13.1795 7.44045 13.5843C9.01429 14.457 10.9754 14.464 12.5714 13.5773C13.2702 13.1771 14.1382 13.0604 14.9409 13.2646C17.5262 13.9156 19.3334 16.2571 19.3334 18.9615Z" fill="#41416E"/>
</svg>
