<svg width="16" height="20" viewBox="0 0 16 20" fill="none" xmlns="http://www.w3.org/2000/svg">
<path d="M3.00049 5.49951C3.00049 2.74251 5.24349 0.499512 8.00049 0.499512C10.7575 0.499512 13.0005 2.74251 13.0005 5.49951C13.0005 8.25651 10.7575 10.4995 8.00049 10.4995C5.24349 10.4995 3.00049 8.25651 3.00049 5.49951ZM12.1175 11.5706C11.5585 11.4286 10.9505 11.5086 10.4475 11.7886C8.92951 12.6326 7.07147 12.6326 5.55347 11.7886C5.05147 11.5096 4.44248 11.4306 3.88348 11.5706C1.89148 12.0736 0.500488 13.8816 0.500488 15.9666V16.9775C0.500488 17.6155 0.670469 18.2394 0.993469 18.7834C1.25647 19.2254 1.7495 19.5005 2.2785 19.5005H13.7215C14.2505 19.5005 14.7435 19.2265 15.0065 18.7825C15.3295 18.2395 15.4995 17.6155 15.4995 16.9775V15.9666C15.5005 13.8816 14.1095 12.0736 12.1175 11.5706Z" fill="#41416E"/>
</svg>
